<svg xmlns="http://www.w3.org/2000/svg" viewBox="0 0 32 32"><g transform="translate(-52.298 -1109.352)"><path class="st0" d="m 63.72719,1123.5499 c -2.36259,0.2267 -3.43336,3.26 -3.06443,5.1074 0.92927,4.6536 5.26857,7.5268 13.27922,7.1504 1.76285,-0.083 1.90378,-1.2605 2.04296,-3.0645 0.15764,-2.0429 -0.56707,-4.0859 -2.04296,-6.1288 -3.06443,0 -4.08591,0 -4.08591,-2.043 0,-2.0429 3.6071,-2.0429 3.6071,-2.0429 l 0,-3.0645 -2.58562,0 c -2.92823,0 -5.11997,3.3187 -5.1074,6.1289 -0.1584,-0.4333 0.31964,-2.2696 -2.04296,-2.043 z"/><path class="st0" d="m 62.3727,1124.0476 0,-5.1053 3.04454,0 0,-2.0429 2.04296,0 0,-2.0372 4.08592,0 0,4.6018 c -2.77281,0.2072 -5.64408,2.9976 -5.78264,6.1043 0.40559,-2.3841 -2.47476,-2.2925 -3.39078,-1.5207 z"/><path fill="none" stroke="#373449" stroke-linecap="round" stroke-linejoin="round" d="m 60.95297,1129.6305 c 0.53281,-0.7675 4.93565,-0.7075 4.80106,-4.0452"/><path class="st0" d="m 71.96351,1122.7059 c 1.35856,-0.3162 2.61032,2.6786 2.10473,3.9559 -1.53359,-0.026 -3.73732,0.062 -4.02642,-0.9871 -0.2891,-1.0493 -0.49462,-2.4064 1.92169,-2.9688 z"/><path class="st0" d="m 67.44959,1115.2712 0,2.0625 -2.0625,0 c -0.2009,1.8368 -1.46354,2.0202 -3.03125,2.0312 l 0,4.2541 c 0.20858,-0.1758 0.12335,-0.2468 0.47365,-0.3308 -0.107903,-1.4054 1.354025,-4.6542 3.17051,-4.926 0,0 3.689435,-2.7329 5.10584,-2.9945 l 0.4375,-0.097 z m -1.875,9.4687 c 0.10766,0.1799 0.19711,0.3995 0.21875,0.6563 0.0278,-0.181 0.0799,-0.3539 0.125,-0.5313 -0.10281,-0.055 -0.22898,-0.089 -0.34375,-0.125 z"/><path fill="none" stroke="#373449" stroke-linecap="round" stroke-linejoin="round" stroke-width=".728" d="m -131.69399,43.579224 a 2.6042995,2.6042995 0 0 1 3.14969,1.707114" transform="matrix(1.3728 0 0 1.3728 248.02 1057.2)"/><path fill="none" stroke="#373449" stroke-linecap="round" stroke-linejoin="round" d="m 67.30756,1116.9028 0,2.0513"/><path fill="none" stroke="#373449" stroke-linecap="round" stroke-linejoin="round" stroke-width=".661" d="m -134.66506,49.75 a 2.5,2.5 0 0 1 0.62722,-3.221053" transform="matrix(1.57358 -.26794 .30014 1.40475 262.185 1017.83)"/><path class="st0" d="m 66.21633,1125.8516 c 1.0736,-4.0212 3.86248,-5.6129 6.71875,-6 l -1.625,0 c -2.23908,0 -4.12216,1.7052 -4.84375,3.875 m -2.75,-0.1875 c -2.36259,0.2267 -3.43143,3.2776 -3.0625,5.125 0.91539,4.584 7.80616,7.9399 13.11428,6.5375 -6.53816,0.7675 -10.76397,-2.9723 -11.45803,-6.5375 -0.33889,-1.697 0.5239,-4.3963 2.5,-5 -0.27239,-0.091 -0.62443,-0.1701 -1.09375,-0.125 z"/><path class="st0" d="m 72,1119.4766 0,3.0625 c 0,0 -3.68992,-0.012 -3.68992,2.0312 0,2.043 0.81057,2.0313 3.875,2.0313 1.47589,2.0429 2.41524,4.1332 2.40246,6.5022 -0.0128,2.3689 -4.20864,2.1201 -5.99621,2.1228 -0.13842,0.01 -0.27002,0 -0.40625,0 0.62967,0.014 2.84838,0.6258 3.53125,0.5937 3.07535,0.542 4.14207,-1.2585 4.28125,-3.0625 0.15764,-2.0429 -0.58661,-4.1133 -2.0625,-6.1562 -3.06443,0 -4.09375,0.012 -4.09375,-2.0313 0,-2.0429 3.625,-2.0312 3.625,-2.0312 l 0,-3.0625 z"/><path fill="none" stroke="#373449" stroke-linecap="round" stroke-linejoin="round" d="m 63.72719,1123.5499 c -2.36259,0.2267 -3.43336,3.26 -3.06443,5.1074 0.92927,4.6536 5.26857,7.5268 13.27922,7.1504 1.76285,-0.083 1.90378,-1.2605 2.04296,-3.0645 0.15764,-2.0429 -0.54497,-4.0307 -2.02086,-6.0736 -3.06443,0 -4.10801,-0.055 -4.10801,-2.0982 0,-2.0429 3.6071,-2.0429 3.6071,-2.0429 l 0,-3.0645 -2.58562,0 c -2.92823,0 -5.11997,3.3187 -5.1074,6.1289 -0.1584,-0.4333 0.31964,-2.2696 -2.04296,-2.043 z"/><path fill="none" stroke="#373449" stroke-linecap="round" stroke-linejoin="round" d="m 62.3727,1124.0476 0,-5.1053 3.04454,0 0,-2.0429 2.04296,0 0,-2.0372 4.08592,0 0,4.6018 c -2.77281,0.2072 -5.64408,2.9976 -5.78264,6.1043 0.40559,-2.3841 -2.47476,-2.2925 -3.39078,-1.5207 z"/><path class="st0" d="m 71.8257,1122.6953 c -0.14554,0.034 -0.24793,0.086 -0.375,0.125 1.0578,0.5319 1.86996,2.4051 1.47065,3.481 0.35997,0.01 0.7068,0.026 1.03125,0.031 0.50559,-1.2773 -0.76834,-3.9535 -2.1269,-3.6373 z"/><path fill="none" stroke="#373449" stroke-linecap="round" stroke-linejoin="round" d="m 71.96351,1122.7059 c 1.35856,-0.3162 2.61032,2.6786 2.10473,3.9559 -1.53359,-0.026 -3.73732,0.062 -4.02642,-0.9871 -0.2891,-1.0493 -0.49462,-2.4064 1.92169,-2.9688 z"/></g></svg>