<svg xmlns="http://www.w3.org/2000/svg" width="91" height="94.262" viewBox="0 0 91 94.262">
  <g id="Grupo_3" data-name="Grupo 3" transform="translate(-92 -432.478)">
    <text id="Iron_Hand" data-name="Iron Hand" transform="translate(93 521.739)" fill="#fff" font-size="20" font-family="Courgette-Regular, Courgette" letter-spacing="-0.006em"><tspan x="0" y="0">Iron Hand</tspan></text>
    <g id="Isotipo" transform="translate(107.054 432.478)">
      <path id="Trazado_410" data-name="Trazado 410" d="M82.2,68.393c-1.081,1.287-2.111,2.574-3.244,3.913,1.39,2.368,2.677,4.531,3.965,6.693a5.1,5.1,0,0,0,4.531,2.832L87.4,81.78c-1.648.875-2.574.824-4.119-.824a21.924,21.924,0,0,1-5.612-9.319c-.051-.257-.1-.515-.206-.875-4.016-1.442-8.135-2.935-10.5-6.951-.875,1.39-1.8,2.935-2.883,4.582,2.42-.978,4.325-.051,6.178,1.339a6.738,6.738,0,0,0,2.42,1.39c3.3.824,5.149,3.141,6.487,6.024l.051-.051c-.412,1.39-.206,2.935-1.493,4.067-1.133,1.03-2.059,2.265-4.016,1.648,2.42,3.4,3.656,3.965,6.59,3.089,1.339-.412,2.574-1.03,2.265-2.832v.051c1.39.978.721,1.905-.154,2.729a6.008,6.008,0,0,1-6.539.669,21.23,21.23,0,0,1-3.862-2.935,4.99,4.99,0,0,0-3.81-1.7,22.551,22.551,0,0,1-4.067-.515c-.36-.206-.721-.36-1.081-.566a1.077,1.077,0,0,1-.309-.206c.1.051.257.051.36.1.36.206.721.36,1.081.566,1.442.566,2.883,1.133,3.862,1.545-1.184,1.236-2.523,2.626-3.913,4.067l.412.412c1.39-.927,2.78-1.905,4.222-2.677a2.262,2.262,0,0,1,2.986.412,35.167,35.167,0,0,0,4.067,3.089c-.257.875-.566,1.7-.824,2.574-.051.051-.154.1-.206.154.051-.051.1-.154.154-.206a9.353,9.353,0,0,1,4.582-2.523c1.493-.36,2.78-1.493,4.17-2.317,1.184-.721,2.214-1.905,4.17-1.184,0,1.133-.1,2.317,0,3.45.257,2.471.206,5.046,2.162,7.054,0,.206-.051.412,0,.257v-.206a19.216,19.216,0,0,1-.618-10.091c.463-2.471,1.8-3.656,4.273-3.759.927-.051,1.854-.154,2.78-.257s1.854-.257,2.78-.36c.824.978,1.648,1.905,2.42,2.832.257.1.463.206.721.309a5.145,5.145,0,0,1,.412.721l.1.1-.1.1-.1-.1c-.154-.257-.257-.463-.412-.721-.206-.1-.412-.257-.618-.36a7.744,7.744,0,0,1-.154-1.493c0-.721.154-1.39.206-2.111.669.154,1.39.257,2.008.463,1.03.309,2.059.721,3.089,1.081a6.146,6.146,0,0,0,.824.412c.051-.1.051-.206.1-.309-.309,0-.669-.051-.978-.051-.566-.566-1.184-1.133-1.751-1.7a1.972,1.972,0,0,1-.257-2.935c.051-.051.1-.051.154-.1v-.1c-.051.1-.051.206-.1.309-2.162.772-4.273,1.6-6.487,2.214a12.79,12.79,0,0,1-8.083-.463c-2.42-.875-3.089-3.038-1.648-5.2a8.631,8.631,0,0,1,2.162-2.162q3.862-2.471,7.878-4.788a3.376,3.376,0,0,1,1.7-.463c2.832-.154,5.664-.309,8.444-.36a2.61,2.61,0,0,1,1.545.669c1.905,1.7,3.81,3.45,5.664,5.2a6.552,6.552,0,0,1,1.854,6.59,16.115,16.115,0,0,1-.978,2.626c-1.133,2.832-2.368,5.664-3.5,8.5a20.362,20.362,0,0,1-6.693,8.341,2.8,2.8,0,0,0-1.184,3.038,44.158,44.158,0,0,1,.721,6.848,40.555,40.555,0,0,1-.824,6.539c-1.133-4.634.875-9.577-1.339-14.262a18.352,18.352,0,0,1-8.6,3.862c-.463.051-.927.618-1.287,1.03-.566.618-1.081,1.339-1.648,2.059,0,2.059.051,4.17,0,6.333-.051,1.236-.1,1.236-2.008.978.206-2.059.412-4.17.618-6.436-1.236.206-2.368.463-3.5.669,2.729,1.545.978,3.862,1.287,6.075H76.33c.566-3.45,3.347-4.531,6.075-6.075-3.4-.566-6.745-.412-9.422-2.78-1.339,3.141.566,5.87.566,8.8-1.081-2.059-2.729-3.913-2.368-6.436.36-2.677-.257-4.891-2.523-6.487-.257-.206-.412-.566-.721-.772-3.862-2.986-5.355-7.105-5.87-11.791a17.319,17.319,0,0,0-1.8-5.509A24.734,24.734,0,0,1,57.9,72.2a3.5,3.5,0,0,1,1.751-3.192c.875-.515,1.648-1.236,2.574-1.7A5.031,5.031,0,0,0,65,64.12,6.7,6.7,0,0,1,70,59.486a4.726,4.726,0,0,0,3.192-2.729,5.09,5.09,0,0,1,4.428-3.038,18.062,18.062,0,0,0,8.341-2.935,8.473,8.473,0,0,1,9.01-.566c3.089,1.648,6.384,2.935,9.525,4.376a8.934,8.934,0,0,1,1.133.772c-1.905,1.03-5.046-.515-5.561,2.677,2.471-.618,4.84-1.236,7.414-1.854v6.024h-.515c.051-1.339.154-2.729.206-4.119a4.66,4.66,0,0,0-4.428-.1c-1.648.772-2.677,1.7-2.368,3.707a3.888,3.888,0,0,1-.669,2.368c-1.905-2.059-1.39-4.428-1.236-6.8a.31.31,0,0,0,.206-.051v-.154c-.051.051-.1.154-.154.206-3.656-.309-6.539-2.368-9.577-4.119-.515-.309-.463-1.545-.721-2.42-1.6.978-3.347,2.008-5.046,3.038,5.149-.412,9.01,2.471,13.078,4.943a12.173,12.173,0,0,0-7.208,2.059c-1.287.824-1.648,1.751-.257,2.78l-.051-.1c.257,1.493.515,2.986.721,4.531.1.669.051,1.339.1,2.471-2.059-2.214-2.935-4.943-3.038-8.5-2.935-.566-5.818-1.03-8.65-1.7-2.42-.566-2.368-.669-3.038-3.6-.566,1.39-.978,2.368-1.545,3.707,2.677.721,5.2,1.39,7.775,2.059.824.206,1.7.257,2.523.463,2.78.721,3.45,2.42,1.8,4.737a8.16,8.16,0,0,1-4.067,3.141c.257-.978.412-1.7.566-2.368a5.127,5.127,0,0,0,.566-.515l.463-.618a10.418,10.418,0,0,0,1.339-.206l-.051.051c-.412-.051-.772-.154-1.184-.206.721-.618,1.493-1.184,2.42-1.957A9.69,9.69,0,0,0,78.75,68.6c-.257.36-.051,1.081-.051,1.545,1.6-1.236,2.986-2.265,4.376-3.3-.051.154-.1.36-.154.515l-.463.618C82.56,68.085,82.354,68.239,82.2,68.393Zm-7.157,7.26a1.751,1.751,0,0,0-.051-.515c.206-.412.463-.824.669-1.287A15.476,15.476,0,0,0,71.8,77.3c-.257.309.051,1.081.154,1.8.824-1.184,1.442-2.111,2.059-2.986,0,.36.051.772.051,1.133l-1.236,2.008c.206.1.412.154.618.257.206-.772.412-1.545.566-2.317l.463-1.081A4.481,4.481,0,0,0,75.043,75.653Zm32.076-3.707-.154.051h.206c-.051.927-.051,1.854-.1,2.78-.206-.051-.412-.1-.566-.154-.515-.721-1.03-1.442-1.6-2.214-1.081.515-1.905.978-2.78,1.339s-1.751.669-2.626.978a4.932,4.932,0,0,1-1.545,2.42,15.471,15.471,0,0,1-2.574,1.39,22.186,22.186,0,0,0,11.173-3.965c-.36,1.184-.721,2.42-1.081,3.759a8.839,8.839,0,0,0,4.994,2.574c2.729.515,2.78.515,2.78,3.244v1.03c1.854-3.6,4.994-6.848,2.935-11.43a10,10,0,0,1-9.216.927C107.995,73.8,107.428,72.873,107.119,71.946ZM93.012,73.182l-.051-.206.1.154c.36.927.772,1.8,1.236,2.935-1.545.412-2.935.772-4.325,1.133,2.574,1.39,4.943.927,7.723-1.339-1.184-.721-2.42-1.442-3.656-2.214.618-1.236-.309-1.905-1.133-2.677.206.721.463,1.442.669,2.162C93.424,73.13,93.218,73.182,93.012,73.182Zm-21.985,22.5h-.1l.154-.051a41.2,41.2,0,0,0,2.214,3.553,39.406,39.406,0,0,0,2.935,3.038c-1.03.669-1.7,1.133-2.935,1.905,2.111.772,3.81,1.545,5.561,2.008,1.905.515,3.913.618,5.818,1.03,3.965.875,6.384-1.493,9.165-3.862a19.683,19.683,0,0,1-6.178-10.04c-.206.051-.36.1-.566.154.515,2.471,1.081,4.891,1.648,7.517a6.6,6.6,0,0,1-5.406.1c-.721-.257-1.545-.824-2.162-.618-1.7.515-3.038-.257-4.325-.978C74.837,98.307,72.932,96.969,71.027,95.682Zm40.572-6.59c-1.133.875-2.265,1.8-3.45,2.626-3.45,2.368-6.745,4.943-11.121,5.509-1.6.206-2.677-.051-3.4-1.493-.978-1.854-1.905-3.759-3.038-6.075.36,5.046,1.7,9.216,4.994,12.923a38.076,38.076,0,0,0,4.994-1.751c3.3-1.545,5.561-4.428,8.238-6.745A7,7,0,0,0,111.6,89.091ZM59.545,72.821c.1,2.832.36,4.994,3.192,5.87,2.368.721,4.634,1.7,7,2.574.1-1.7.206-3.038.257-4.222C66.238,76.631,62.48,76.477,59.545,72.821ZM64.9,91.769c.1,5.664,3.913,7.929,7.26,10.606.515-.309.978-.566,1.8-1.081C69.74,99.234,66.65,96.454,64.9,91.769Zm35.578-24.92-.566.566c1.287,1.648,1.493,4.531,5.3,4.016C103.464,69.681,101.971,68.239,100.477,66.849Z" transform="translate(-57.895 -49.177)" fill="#fff"/>
    </g>
  </g>
</svg>
