<svg xmlns="http://www.w3.org/2000/svg" viewBox="0 0 30 24" style="max-height:1.5rem"><g transform="translate(-25 -662)"><path class="a" d="M0,387.133v.576a.973.973,0,0,0,1.946,0v-.576Zm0,0" transform="translate(25 297.319)"/><path class="a" d="M478.027,387.133v.576a.973.973,0,0,0,1.946,0v-.576Zm0,0" transform="translate(-424.973 297.319)"/><path class="a" d="M57,2.365a2.7,2.7,0,0,1,1.134.248V2.129A2.16,2.16,0,0,0,55.949,0H33.959a2.16,2.16,0,0,0-2.185,2.129v.5a2.746,2.746,0,0,1,1.188-.268Zm0,0" transform="translate(-4.954 662)"/><path class="a" d="M30.08,198.575a2.668,2.668,0,0,0-1.848-2.517,2.761,2.761,0,0,0-.871-.141H2.808a2.761,2.761,0,0,0-.871.141A2.668,2.668,0,0,0,.09,198.575v2.34H30.08Zm0,0" transform="translate(24.915 477.47)"/><path class="a" d="M.086,317.133h29.99V319.2H.086Zm0,0" transform="translate(24.919 363.309)"/><path class="a" d="M40.937,75.266a.667.667,0,0,0-.671.645v3.471a.645.645,0,0,0,.645.644H50.975a.645.645,0,0,0,.645-.644v-.007l.026-3.467A.645.645,0,0,0,51,75.266Zm0,0" transform="translate(-12.959 591.109)"/><path class="a" d="M274.179,75.266a.645.645,0,0,0-.645.645v.007l-.026,3.467a.645.645,0,0,0,.644.642h10.065a.645.645,0,0,0,.644-.645s0,0,0-.007l.026-3.467a.645.645,0,0,0-.645-.642Zm0,0" transform="translate(-232.169 591.109)"/></g></svg>