<svg xmlns="http://www.w3.org/2000/svg" viewBox="0 0 32.579 30" style="max-height:1.5rem"><g transform="translate(-304 -547)"><g transform="translate(322.163 558.429)"><g transform="translate(0)"><path class="a" d="M295.159,230.229h4.327v-5.718h-6.395a4.476,4.476,0,0,1,.88,1.639,2.051,2.051,0,0,1-1.273,2.541,1.992,1.992,0,0,1-2.543-1.311c-.258-.823.27-1.153-1.071-1.635a1.417,1.417,0,0,1-.919-1.18,1.387,1.387,0,0,1,.1-.69c-.093.023-1.007.2-1.172.2l-.168.937a3.719,3.719,0,0,0-1.852,3.217v7.631a1.393,1.393,0,0,0,1.393,1.393h.847v2.481a2.708,2.708,0,0,0,5.416,0v-2.481h2.342v1.172a.713.713,0,0,0,.713.713h3.705v-3.82h-2.928a.864.864,0,1,1,0-1.729h2.928v-1.633h-4.327a.864.864,0,1,1,0-1.729Zm-5.212,3.209a2.472,2.472,0,0,1-2.426-2.455,2.436,2.436,0,0,1,4.872,0A2.471,2.471,0,0,1,289.947,233.438Z" transform="translate(-285.07 -223.874)"/></g></g><g transform="translate(325.627 551.489)"><path class="a" d="M342.868,75.418h-2.789a1.146,1.146,0,0,0-1.128.944l-.137.763a2,2,0,0,1,1.476,1.387,4.043,4.043,0,0,1-.449,2.764,5.372,5.372,0,0,0,.63-.408l.566-3.159h1.649A6.859,6.859,0,0,0,342.868,75.418Z" transform="translate(-338.814 -75.418)"/></g><g transform="translate(333.283 551.515)"><path class="a" d="M457.869,75.417a10.674,10.674,0,0,1-.271,2.291h.629c0,.214,0,.749,0,.935a.682.682,0,0,0,.682.682h1.983V75.417Z" transform="translate(-457.598 -75.417)"/></g><g transform="translate(304.147 567.256)"><g transform="translate(0)"><path class="a" d="M11.5,361.692l-.07-.587a8.427,8.427,0,0,1-3.209-.282l.1.846L5.654,368.41a1.576,1.576,0,1,0,2.932,1.159l2.812-7.112A1.576,1.576,0,0,0,11.5,361.692Z" transform="translate(-5.543 -360.823)"/></g></g><g transform="translate(309.616 565.842)"><g transform="translate(0)"><path class="a" d="M95.125,340.435l-.194-1.547a7.8,7.8,0,0,1-2.99,1.5l.023.186-1.542,7.584a1.576,1.576,0,0,0,3.09.628l1.593-7.838A1.578,1.578,0,0,0,95.125,340.435Z" transform="translate(-90.391 -338.888)"/></g></g><g transform="translate(318.671 558.662)"><path class="a" d="M234.731,202.541a.8.8,0,0,0-.992-.54l-2.848.841a2.733,2.733,0,0,1,.373,1.555l.382-.113-.226.869a.8.8,0,0,0,1.546.4l.467-1.8.757-.223A.8.8,0,0,0,234.731,202.541Z" transform="translate(-230.891 -201.968)"/></g><g transform="translate(307.134 547)"><g transform="translate(0 0)"><ellipse class="a" cx="2.802" cy="2.92" rx="2.802" ry="2.92"/></g></g><g transform="translate(304 562.737)"><g transform="translate(0)"><path class="a" d="M13.2,273.038c-.118.2-.248.411-.393.617a5.17,5.17,0,0,1-4.668,2.413,3.974,3.974,0,0,1-3.453-1.978.368.368,0,0,0-.512-.125l-.733.459a.368.368,0,0,0-.122.5,5.493,5.493,0,0,0,4.744,2.742,6.771,6.771,0,0,0,6.082-3.134,10.167,10.167,0,0,0,.72-1.213Z" transform="translate(-3.266 -273.038)"/></g></g><g transform="translate(306.356 552.728)"><path class="a" d="M50.089,111.332l-4.618-.771-2.086-4.767,2.793,3.578.79.132v-3.373a1.934,1.934,0,0,0-1.893-1.972H41.7a1.921,1.921,0,0,0-1.877,1.972v8.822a2.624,2.624,0,0,0,2.578,1.772,3.983,3.983,0,0,0,3.56-1.92c-2.009-.335-1.894-.314-2.005-.34a2.589,2.589,0,0,1-1.912-1.8l-1.07-5.584,2.337,5.341a1.375,1.375,0,0,0,.773.741c.17.064-.234-.014,5.577.956a1.36,1.36,0,0,0,1.549-1.168A1.4,1.4,0,0,0,50.089,111.332Z" transform="translate(-39.823 -104.159)"/></g><g transform="translate(323.94 549.675)"><path class="a" d="M320.93,42.112a.782.782,0,0,0-.965-.574.822.822,0,0,0-.549,1.011,8.029,8.029,0,0,1,.031,3.412,6.385,6.385,0,0,1-.836,2.115,7.311,7.311,0,0,1-1.12,1.386,10.636,10.636,0,0,1-4.686,2.377.214.214,0,0,0-.159.247.206.206,0,0,0,.238.173,11.1,11.1,0,0,0,5.173-2.091,8.287,8.287,0,0,0,1.41-1.468,8,8,0,0,0,1.189-2.4A9.393,9.393,0,0,0,320.93,42.112Z" transform="translate(-312.643 -41.509)"/></g><g transform="translate(323.241 553.924)"><path class="a" d="M304.5,120.422a.79.79,0,0,0-1-.542.837.837,0,0,0-.51,1.071,1.182,1.182,0,0,1,.079.349,1.989,1.989,0,0,1-.192,1.1,2.855,2.855,0,0,1-1,1.1.211.211,0,0,0-.074.226.2.2,0,0,0,.246.138,3.141,3.141,0,0,0,1.95-1.349A3.124,3.124,0,0,0,304.5,120.422Z" transform="translate(-301.795 -119.842)"/></g><g transform="translate(326.453 560.269)"><path class="a" d="M355.082,231.346a3.185,3.185,0,0,0-1.516-1.9,3.328,3.328,0,0,0-1.738-.367.2.2,0,0,0-.187.139.208.208,0,0,0,.122.262l.022.008a2.71,2.71,0,0,1,1.243.744,1.926,1.926,0,0,1,.516,1.337.074.074,0,0,1-.007.017.8.8,0,0,0,1.043.832A.837.837,0,0,0,355.082,231.346Z" transform="translate(-351.631 -229.076)"/></g></g></svg>