<svg xmlns="http://www.w3.org/2000/svg" viewBox="0 0 27.72 30" style="max-height:1.5rem"><g transform="translate(-306 -488)"><g transform="translate(306 488)"><path class="a" d="M9.057,39.075A33.941,33.941,0,0,1,3.6,38.7H2.646l.409,3.5C4.6,43.139,7,42.072,8.292,41.131c0-.012,0-.023,0-.035a1,1,0,1,1,1,1,.964.964,0,0,1-.252-.036.627.627,0,0,1-.114.111c-1.5,1.1-3.828,1.972-5.705,1.408L3.7,47.726h.023c.235.446,2.493.8,5.248.8s5.013-.35,5.248-.8h.022L15.3,38.7h-.782A33.979,33.979,0,0,1,9.057,39.075Z" transform="translate(-2.646 -18.693)"/><path class="a" d="M14.045,18.906,25.069,1.217A.8.8,0,0,0,23.719.375L12.279,18.73l-.124.2a.787.787,0,0,0-.112.321c-.833-.053-1.8-.085-2.877-.085-3.465,0-5.738.332-6.288.608.55.275,2.823.608,6.288.608s5.737-.332,6.288-.608a6.658,6.658,0,0,0-1.719-.368Z" transform="translate(-2.755 0)"/><path class="a" d="M42.783,50.358c-.621-.174-1.217-.343-1.824-.475a.575.575,0,0,0-.5-.738c-2.549-.119-6-.285-8.045,1.543a.509.509,0,0,0-.188,0,13.528,13.528,0,0,0-1.924.531.536.536,0,0,0-.127.97,10.594,10.594,0,0,0,3.786,1.053c.38.442,1.129.379,1.993.085a26.516,26.516,0,0,0,5.84-.82.52.52,0,0,0,.351-.679c.261-.159.517-.322.771-.5A.538.538,0,0,0,42.783,50.358Z" transform="translate(-15.442 -23.562)"/><path class="a" d="M29.742,49.531c.029-.007.058-.005.087-.011a.166.166,0,0,0,.028.013,2.244,2.244,0,0,0,1.869-.255.535.535,0,0,0-.268-.989c-.113-.008-.224,0-.336,0a.546.546,0,0,0-.661-.123c.1-.042-.111.02-.134.025a2.431,2.431,0,0,1-.264.034,5.647,5.647,0,0,0-.669.086.464.464,0,0,0-.256.149l-.341.05c-.675.1-.387,1.119.282,1.024l.295-.041A.5.5,0,0,0,29.742,49.531Z" transform="translate(-14.739 -23.105)"/></g></g></svg>