<svg xmlns="http://www.w3.org/2000/svg" viewBox="0 0 30.345 30.345" style="max-height:1.5rem"><g transform="translate(-305 -605)"><path class="a" d="M1.334,469.667H14.728a1.334,1.334,0,0,0,0-2.667H1.334a1.334,1.334,0,0,0,0,2.667Zm0,0" transform="translate(305 165.678)"/><path class="a" d="M1.334,394.667H14.728a1.334,1.334,0,0,0,0-2.667H1.334a1.334,1.334,0,0,0,0,2.667Zm0,0" transform="translate(305 236.233)"/><path class="a" d="M61,274.556h4.445V271H61.432Zm0,0" transform="translate(247.615 350.061)"/><path class="a" d="M436,271v3.556h4.5L440.072,271Zm0,0" transform="translate(-105.16 350.061)"/><path class="a" d="M85.007,2.667a.889.889,0,1,1,.889.889h-.889V5.673L82.13,7.112H79.747a6.257,6.257,0,0,0-6.139,5.259l-.319,1.912h3.717V12.505h1.778v8.949h4.89a3.107,3.107,0,0,1,2.171,5.334,3.063,3.063,0,0,1,.629,3.556h6.535V12.505h1.778v1.778h3.776l-.319-1.912a6.318,6.318,0,0,0-6.2-5.259H89.662L86.785,5.673V5.182a2.667,2.667,0,1,0-3.556-2.515Zm3.5,5.857a2.666,2.666,0,0,1-5.228,0L85.9,7.217Zm0,0" transform="translate(236.055 605)"/></g></svg>