<svg xmlns="http://www.w3.org/2000/svg" viewBox="0 0 19.336 30" style="max-height:1.5rem"><g transform="translate(-218 -547)"><path class="a" d="M75,345.777v5.88h5.8v-4.038a8.4,8.4,0,0,1-3.333-1.027A6.616,6.616,0,0,0,75,345.777Zm0,0" transform="translate(147.834 220.695)"/><path class="a" d="M3.833,183.243A5.8,5.8,0,0,0,0,188.7v12.7H15.469V188.7a5.8,5.8,0,0,0-3.833-5.458L11.311,180H4.157Zm8.735,7.392V198.5H2.9v-9.8h.967a8.446,8.446,0,0,1,4.3,1.069,6.543,6.543,0,0,0,3.435.865Zm0,0" transform="translate(218 375.602)"/><path class="a" d="M67.5,121.934h6.767L74.074,120H67.693Zm0,0" transform="translate(154.851 433.987)"/><path class="a" d="M15.513,5.8q-.043-.48-.044-.967V0H4.834A4.839,4.839,0,0,0,0,4.834V5.8Zm0,0" transform="translate(218 547)"/><path class="a" d="M215.2,120a12.486,12.486,0,0,0,3.346,5.987l1.367-1.367A10.572,10.572,0,0,1,217.2,120Zm0,0" transform="translate(16.667 433.875)"/><path class="a" d="M270,30h1.934v1.934H270Zm0,0" transform="translate(-34.598 518.934)"/></g></svg>