<svg xmlns="http://www.w3.org/2000/svg" viewBox="0 0 30 30" style="max-height:1.5rem"><g transform="translate(-25 -488)"><path class="a" d="M330,240h2.132v1.066H330Zm0,0" transform="translate(-287.314 260.86)"/><path class="a" d="M332.132,200.533A.533.533,0,0,0,331.6,200h-1.066a.533.533,0,0,0-.533.533v.533h2.132Zm0,0" transform="translate(-287.314 298.716)"/><path class="a" d="M235,240v1.6a.528.528,0,0,1-.281.462c1.375,0,2.815-.006,4.279-.009a.527.527,0,0,1-.268-.453V240Zm0,0" transform="translate(-197.137 260.862)"/><path class="a" d="M385.54,240v1.6a.523.523,0,0,1-.251.441l1.563-.006a.51.51,0,0,1-.112-.082.534.534,0,0,1-.129-.419L386.8,240Zm0,0" transform="translate(-339.643 260.862)"/><path class="a" d="M202.73,240h-.972a1.607,1.607,0,0,0,.972.975Zm0,0" transform="translate(-165.947 260.859)"/><path class="a" d="M142.73,240h-.972a1.607,1.607,0,0,0,.972.975Zm0,0" transform="translate(-109.162 260.859)"/><path class="a" d="M431.328,241.066h1.99L433.185,240h-1.724Zm0,0" transform="translate(-383.213 260.86)"/><path class="a" d="M201.066,181.711A1.6,1.6,0,0,0,200,183.219v.533h1.066Zm0,0" transform="translate(-164.284 316.027)"/><path class="a" d="M174.98,240h-.053v1.6a.527.527,0,0,1-.286.464H177A2.67,2.67,0,0,1,174.98,240Zm0,0" transform="translate(-140.281 260.862)"/><path class="a" d="M31.066,30.533A.533.533,0,1,1,30.533,30,.533.533,0,0,1,31.066,30.533Zm0,0" transform="translate(-3.401 459.599)"/><path class="a" d="M30,0H0V4.264H30ZM2.143,3.731a1.6,1.6,0,1,1,1.607-1.6A1.6,1.6,0,0,1,2.143,3.731Zm3.75-1.066H4.821a.533.533,0,1,1,0-1.066H5.893a.533.533,0,1,1,0,1.066Zm2.679,0H7.5A.533.533,0,1,1,7.5,1.6H8.571a.533.533,0,1,1,0,1.066Zm8.571,1.066a1.6,1.6,0,1,1,1.607-1.6A1.6,1.6,0,0,1,17.143,3.731Zm3.75-1.066H19.821a.533.533,0,1,1,0-1.066h1.071a.533.533,0,1,1,0,1.066Zm2.679,0H22.5a.533.533,0,1,1,0-1.066h1.071a.533.533,0,1,1,0,1.066Zm0,0" transform="translate(25 488)"/><path class="a" d="M311.066,30.533a.533.533,0,1,1-.533-.533A.533.533,0,0,1,311.066,30.533Zm0,0" transform="translate(-268.39 459.599)"/><path class="a" d="M41.072,143.731a2.676,2.676,0,0,1,2.681-2.665.535.535,0,0,1,.536.533v2.132a2.676,2.676,0,0,1,2.681-2.665.535.535,0,0,1,.536.533v2.132a2.676,2.676,0,0,1,2.681-2.665.535.535,0,0,1,.536.533v2.665h3.753v-.533a1.6,1.6,0,0,1,1.609-1.6h1.072a1.6,1.6,0,0,1,1.609,1.6v.533h1.4l.209-1.665a.535.535,0,0,1,.532-.467h2.145a.535.535,0,0,1,.532.467l.209,1.665h1.939v-3.731A.535.535,0,0,0,65.2,140H40.536a.535.535,0,0,0-.536.533v3.731h1.072Zm0,0" transform="translate(-12.868 355.506)"/><path class="a" d="M115.039,240h-.053v1.6a.527.527,0,0,1-.282.462h2.365a2.671,2.671,0,0,1-2.03-2.061Zm0,0" transform="translate(-83.556 260.862)"/><path class="a" d="M428.3,452.031l4.887-.02V450h-1.877A4.806,4.806,0,0,1,428.3,452.031Zm0,0" transform="translate(-380.32 62.138)"/><path class="a" d="M486,241.533a.534.534,0,0,1-.129.419.493.493,0,0,1-.092.068l1.824-.008V240H485.81Zm0,0" transform="translate(-434.737 260.862)"/><path class="a" d="M255.048,450v1.6a.526.526,0,0,1-.279.459c2.356,0,4.865-.011,7.336-.02A4.806,4.806,0,0,1,259.057,450Zm0,0" transform="translate(-216.098 62.138)"/><path class="a" d="M366.321,450H361.11A3.718,3.718,0,0,0,366.321,450Zm0,0" transform="translate(-316.743 62.138)"/><path class="a" d="M347.091,335.14a3.731,3.731,0,1,0-6.731,0Zm-3.365-4.264a.533.533,0,1,1,0,1.066,1.6,1.6,0,0,0-1.6,1.6.533.533,0,1,1-1.066,0A2.668,2.668,0,0,1,343.725,330.876Zm0,0" transform="translate(-296.719 175.888)"/><path class="a" d="M436.461,200l-.133,1.066h1.457L437.652,200Zm0,0" transform="translate(-387.947 298.716)"/><path class="a" d="M81.066,331.711A1.6,1.6,0,0,0,80,333.219v3.731h1.066Zm0,0" transform="translate(-50.736 174.079)"/><path class="a" d="M131.066,331.711A1.6,1.6,0,0,0,130,333.219v3.731h1.066Zm0,0" transform="translate(-98.034 174.079)"/><path class="a" d="M181.066,333.219v-1.508A1.6,1.6,0,0,0,180,333.219v3.731h1.066Zm0,0" transform="translate(-145.355 174.079)"/><path class="a" d="M132.73,450h-.972a1.607,1.607,0,0,0,.972.975Zm0,0" transform="translate(-99.698 62.138)"/><path class="a" d="M114.985,469.691v.549a.527.527,0,0,1-.282.462h1.832A2.662,2.662,0,0,1,114.985,469.691Zm0,0" transform="translate(-83.556 43.496)"/><path class="a" d="M40.536,508.392H65.2a.535.535,0,0,0,.536-.533v-.121c-4.689.021-24.527.043-25.736.015v.106A.535.535,0,0,0,40.536,508.392Zm0,0" transform="translate(-12.868 7.476)"/><path class="a" d="M0,124.671H30V100H0Zm1.071-21.989a1.608,1.608,0,0,1,1.607-1.609H27.321a1.608,1.608,0,0,1,1.607,1.609v19.307a1.608,1.608,0,0,1-1.607,1.609H2.679a1.608,1.608,0,0,1-1.607-1.609Zm0,0" transform="translate(25 393.329)"/><path class="a" d="M41.119,450H40v2.033c.581.013,1.675.021,3.134.026A2.669,2.669,0,0,1,41.119,450Zm0,0" transform="translate(-12.868 62.138)"/><path class="a" d="M82.73,450.975V450h-.972A1.607,1.607,0,0,0,82.73,450.975Zm0,0" transform="translate(-52.401 62.138)"/><path class="a" d="M221.066,331.711A1.6,1.6,0,0,0,220,333.219v3.731h1.066Zm0,0" transform="translate(-183.212 174.079)"/><path class="a" d="M41.072,301.056a2.676,2.676,0,0,1,2.681-2.665.535.535,0,0,1,.536.533v.549a2.676,2.676,0,0,1,2.145-1.082.535.535,0,0,1,.536.533v.549a2.676,2.676,0,0,1,2.145-1.082.535.535,0,0,1,.536.533v.014a2.664,2.664,0,0,1,1.609-.547.535.535,0,0,1,.536.533v5.862h3.5a4.779,4.779,0,0,1,1.67-5.467,4.848,4.848,0,0,1,5.748,0,4.779,4.779,0,0,1,1.67,5.467h1.354v-7.049c-4.689.021-24.527.043-25.736.015v7.034h1.072Zm0,0" transform="translate(-12.868 206.238)"/><path class="a" d="M82.73,240.975V240h-.972A1.607,1.607,0,0,0,82.73,240.975Zm0,0" transform="translate(-52.401 260.859)"/><path class="a" d="M41.119,240H40v2.033c.581.013,1.675.021,3.134.026A2.669,2.669,0,0,1,41.119,240Zm0,0" transform="translate(-12.868 260.862)"/><path class="a" d="M81.066,181.711A1.6,1.6,0,0,0,80,183.219v.533h1.066Zm0,0" transform="translate(-50.736 316.027)"/><path class="a" d="M164.926,469.691v.549a.528.528,0,0,1-.286.465h1.833A2.661,2.661,0,0,1,164.926,469.691Zm0,0" transform="translate(-130.818 43.496)"/><path class="a" d="M214.963,479.756a.527.527,0,0,1-.284.463h1.289a2.643,2.643,0,0,1-1.005-.476Zm0,0" transform="translate(-178.176 33.981)"/><path class="a" d="M141.066,181.711A1.6,1.6,0,0,0,140,183.219v.533h1.066Zm0,0" transform="translate(-107.499 316.027)"/><path class="a" d="M182.73,450h-.972a1.607,1.607,0,0,0,.972.975Zm0,0" transform="translate(-147.019 62.138)"/><path class="a" d="M222.73,450h-.972a1.607,1.607,0,0,0,.972.975Zm0,0" transform="translate(-184.876 62.138)"/></g></svg>