<svg xmlns="http://www.w3.org/2000/svg" viewBox="0 0 30 30" style="max-height:1.5rem"><g transform="translate(-25 -547)"><path class="a" d="M3.01,353.176,9.887,346.3l-2.494-2.494L.517,350.682a1.763,1.763,0,0,0,2.494,2.494Zm0,0" transform="translate(25 223.308)"/><path class="a" d="M126.341,212.777l2.494,2.494a4.414,4.414,0,0,0,6.235,0l.623-.623-8.729-8.729-.623.623a4.414,4.414,0,0,0,0,6.235Zm0,0" transform="translate(-92.738 353.126)"/><path class="a" d="M190.906,14.927a.881.881,0,0,1-.655-1.637,46.32,46.32,0,0,1,5.963-1.679,18.347,18.347,0,0,0-3.488-5.58l-4.332,4.332a.882.882,0,0,1-1.247-1.247l4.332-4.332A18.348,18.348,0,0,0,185.9,1.3a46.376,46.376,0,0,1-1.679,5.963.882.882,0,1,1-1.637-.655A46.906,46.906,0,0,0,184.223.725,18.248,18.248,0,0,0,179.17,0a.882.882,0,0,0-.837,1.161c.022.065,2,6.144-.465,9.642l8.839,8.839c3.491-2.459,9.577-.487,9.642-.465a.882.882,0,0,0,1.16-.837,18.249,18.249,0,0,0-.724-5.054,47.064,47.064,0,0,0-5.879,1.641Zm0,0" transform="translate(-142.509 547)"/></g></svg>