<svg xmlns="http://www.w3.org/2000/svg" viewBox="0 0 30 24.464" style="max-height:1.5rem"><g transform="translate(-212 -608)"><g transform="translate(212 608)"><path class="a" d="M154.641,39.669a1.53,1.53,0,0,0,.064.543c.009-.028.144,0,.5,0l1.027-.017,1.038.017a2.179,2.179,0,0,0,.535-.038c-.015-.012.023-.148.023-.5a8.828,8.828,0,0,0-1.594-3.609A9.1,9.1,0,0,0,154.641,39.669Z" transform="translate(-133.304 -33.853)"/><path class="a" d="M23.635,70.95a.745.745,0,0,0,.178.021.693.693,0,0,0,.417-.15h-.942l.35.13Z" transform="translate(-20.074 -63.817)"/><path class="a" d="M66.787,29.289h7.4c0-1.17-1.974-2.117-4.474-2.208a2.288,2.288,0,0,0,.258-1.2c0-2.1-2.858-5.816-2.858-5.816s-2.852,3.718-2.852,5.816a2.337,2.337,0,0,0,.245,1.188H55.364l4.252,1.718-.325.506h6.919L59.19,36.306l-2.684-2.682-.226.35L58.9,36.6,51.26,44.235l.287.29,7.643-7.64,7.642,7.64.292-.29L59.483,36.6Zm-1.482-2.224a.932.932,0,0,1-.224-.08c-.207-.161-.315-.533-.315-1.107,0-1.351,1.454-3.691,2.348-4.963.9,1.271,2.354,3.612,2.354,4.963,0,.759-.171,1.056-.528,1.188Z" transform="translate(-44.187 -20.061)"/><path class="a" d="M0,70.821v2.224H2.141l.893-2.224Z" transform="translate(0 -63.817)"/><path class="a" d="M28.5,72.8l-4.9-1.982H18.807a1.3,1.3,0,0,1-1.532.65l-1.147,2.86,1.906,4.729,2.158-1.094.064-1.121,4.06,2.475Z" transform="translate(-13.903 -63.817)"/></g></g></svg>