<svg xmlns="http://www.w3.org/2000/svg" viewBox="0 0 30 30" style="max-height:1.5rem"><g transform="translate(-118 -547)"><path class="a" d="M127.625,301h-.967v2.9a4.839,4.839,0,0,1-4.834,4.834H106.381a4.813,4.813,0,0,0,3.843,1.934h.967a3.927,3.927,0,0,0,3.867,3.932h7.734a3.927,3.927,0,0,0,3.867-3.932h.967a4.834,4.834,0,1,0,0-9.668Z" transform="translate(15.476 262.401)"/><path class="a" d="M91.967,301a.967.967,0,1,0,.967.967A.968.968,0,0,0,91.967,301Z" transform="translate(32.299 263.527)"/><path class="a" d="M26.2,163.568v-6.045c-.194.065-.386.134-.587.184l-.245.06H14.993a3.862,3.862,0,0,1-3.93-3.78v-.059l-1.449,1.394a4.063,4.063,0,0,1-5.585,0A3.7,3.7,0,0,1,3.28,151h-.2A3.023,3.023,0,0,0,0,153.9v9.668a3.023,3.023,0,0,0,3.082,2.9h20.1A2.963,2.963,0,0,0,26.2,163.568Zm-19.1.967a2.9,2.9,0,1,1,0-5.8,2.9,2.9,0,1,1,0,5.8Zm6.031-3.867a.968.968,0,1,1,1.005-.967A.987.987,0,0,1,13.134,160.668Zm3.015,3.867a1.935,1.935,0,1,1,2.01-1.934A1.975,1.975,0,0,1,16.149,164.535Zm5.026-1.934a.968.968,0,1,1,1.005-.967A.987.987,0,0,1,21.175,162.6Z" transform="translate(118 404.067)"/><path class="a" d="M75.831,12.687l2.692-2.9a2.511,2.511,0,0,1,1.9-.831h6.882a.908.908,0,0,1,.9.947.9.9,0,0,1-.9.922h-5.4a1.826,1.826,0,0,0-1.716,1.892,1.785,1.785,0,0,0,1.716,1.847h9.048a4.382,4.382,0,0,0,2.067-1.237V13.31l5.882-6.265a1.009,1.009,0,0,0,0-1.373L93.78.284a.86.86,0,0,0-1.276,0L90.671,2.192a2.89,2.89,0,0,1-1.114.735l-9.649.87a4.424,4.424,0,0,0-2.085,1.276l-4.466,5a1.967,1.967,0,0,0,.025,2.61A1.647,1.647,0,0,0,75.831,12.687Z" transform="translate(48.823 547)"/></g></svg>